<?xml version="1.0" encoding="utf-8"?>
<!-- Generator: Adobe Illustrator 16.0.0, SVG Export Plug-In . SVG Version: 6.00 Build 0)  -->
<!DOCTYPE svg PUBLIC "-//W3C//DTD SVG 1.1//EN" "http://www.w3.org/Graphics/SVG/1.1/DTD/svg11.dtd">
<svg version="1.1" id="图层_1" xmlns="http://www.w3.org/2000/svg" xmlns:xlink="http://www.w3.org/1999/xlink" x="0px" y="0px"
	 width="60px" height="59.999px" viewBox="0 0 60 59.999" enable-background="new 0 0 60 59.999" xml:space="preserve">
<path fill="#CD2B1B" d="M30,0.111c-16.568,0-30,13.432-30,30s13.432,30,30,30s30-13.432,30-30S46.568,0.111,30,0.111z
	 M46.812,31.769c0,1.013-0.821,1.834-1.834,1.834H33.887v11.721c0,1.012-0.822,1.834-1.834,1.834h-3.66
	c-1.012,0-1.834-0.822-1.834-1.834V33.603H15.467c-1.013,0-1.834-0.821-1.834-1.834v-3.431c0-1.013,0.821-1.834,1.834-1.834h11.091
	V14.898c0-1.013,0.822-1.834,1.834-1.834h3.66c1.012,0,1.834,0.821,1.834,1.834v11.606h11.091c1.013,0,1.834,0.821,1.834,1.834
	V31.769z"/>
</svg>
